<mxfile host="app.diagrams.net" modified="2022-11-22T02:58:00.524Z" agent="5.0 (Windows NT 10.0; Win64; x64) AppleWebKit/537.36 (KHTML, like Gecko) Chrome/107.0.0.0 Safari/537.36" etag="yl9NLwK_TZ8ll1QSOXmg" version="20.5.1" type="github">
  <diagram id="IfTFJkg9AgPDvEeqJ4sV" name="第 1 页">
    <mxGraphModel dx="1094" dy="744" grid="1" gridSize="10" guides="1" tooltips="1" connect="1" arrows="1" fold="1" page="1" pageScale="1" pageWidth="827" pageHeight="1169" math="0" shadow="0">
      <root>
        <mxCell id="0" />
        <mxCell id="1" parent="0" />
        <mxCell id="3BbyAPpDiJHyQR64XtiH-26" value="" style="group;fillColor=#6d8764;strokeColor=#3A5431;fontColor=#ffffff;" vertex="1" connectable="0" parent="1">
          <mxGeometry x="300" y="255" width="30" height="85" as="geometry" />
        </mxCell>
        <mxCell id="3BbyAPpDiJHyQR64XtiH-2" value="" style="rounded=0;whiteSpace=wrap;html=1;fillColor=#6d8764;strokeColor=#3A5431;fontColor=#ffffff;" vertex="1" parent="3BbyAPpDiJHyQR64XtiH-26">
          <mxGeometry width="30" height="85" as="geometry" />
        </mxCell>
        <mxCell id="3BbyAPpDiJHyQR64XtiH-5" value="" style="ellipse;whiteSpace=wrap;html=1;aspect=fixed;fillColor=#6d8764;fontColor=#ffffff;strokeColor=#000000;" vertex="1" parent="3BbyAPpDiJHyQR64XtiH-26">
          <mxGeometry x="5" y="8" width="20" height="20" as="geometry" />
        </mxCell>
        <mxCell id="3BbyAPpDiJHyQR64XtiH-6" value="" style="ellipse;whiteSpace=wrap;html=1;aspect=fixed;fillColor=#6d8764;fontColor=#ffffff;strokeColor=#000000;" vertex="1" parent="3BbyAPpDiJHyQR64XtiH-26">
          <mxGeometry x="5" y="33" width="20" height="20" as="geometry" />
        </mxCell>
        <mxCell id="3BbyAPpDiJHyQR64XtiH-7" value="" style="ellipse;whiteSpace=wrap;html=1;aspect=fixed;fillColor=#6d8764;fontColor=#ffffff;strokeColor=#000000;" vertex="1" parent="3BbyAPpDiJHyQR64XtiH-26">
          <mxGeometry x="5" y="58" width="20" height="20" as="geometry" />
        </mxCell>
        <mxCell id="3BbyAPpDiJHyQR64XtiH-27" value="" style="group;fillColor=#647687;strokeColor=#314354;" vertex="1" connectable="0" parent="1">
          <mxGeometry x="371" y="255" width="30" height="85" as="geometry" />
        </mxCell>
        <mxCell id="3BbyAPpDiJHyQR64XtiH-22" value="" style="rounded=0;whiteSpace=wrap;html=1;fillColor=#647687;strokeColor=#314354;" vertex="1" parent="3BbyAPpDiJHyQR64XtiH-27">
          <mxGeometry width="30" height="85" as="geometry" />
        </mxCell>
        <mxCell id="3BbyAPpDiJHyQR64XtiH-23" value="" style="ellipse;whiteSpace=wrap;html=1;aspect=fixed;fillColor=#647687;strokeColor=#000000;" vertex="1" parent="3BbyAPpDiJHyQR64XtiH-27">
          <mxGeometry x="5" y="8" width="20" height="20" as="geometry" />
        </mxCell>
        <mxCell id="3BbyAPpDiJHyQR64XtiH-24" value="" style="ellipse;whiteSpace=wrap;html=1;aspect=fixed;fillColor=#647687;strokeColor=#000000;" vertex="1" parent="3BbyAPpDiJHyQR64XtiH-27">
          <mxGeometry x="5" y="33" width="20" height="20" as="geometry" />
        </mxCell>
        <mxCell id="3BbyAPpDiJHyQR64XtiH-25" value="" style="ellipse;whiteSpace=wrap;html=1;aspect=fixed;fillColor=#647687;strokeColor=#000000;" vertex="1" parent="3BbyAPpDiJHyQR64XtiH-27">
          <mxGeometry x="5" y="58" width="20" height="20" as="geometry" />
        </mxCell>
        <mxCell id="3BbyAPpDiJHyQR64XtiH-28" value="" style="group;fillColor=#6d8764;strokeColor=#3A5431;" vertex="1" connectable="0" parent="1">
          <mxGeometry x="440" y="255" width="30" height="85" as="geometry" />
        </mxCell>
        <mxCell id="3BbyAPpDiJHyQR64XtiH-29" value="" style="rounded=0;whiteSpace=wrap;html=1;fillColor=#6d8764;strokeColor=#3A5431;" vertex="1" parent="3BbyAPpDiJHyQR64XtiH-28">
          <mxGeometry width="30" height="85" as="geometry" />
        </mxCell>
        <mxCell id="3BbyAPpDiJHyQR64XtiH-30" value="" style="ellipse;whiteSpace=wrap;html=1;aspect=fixed;fillColor=#6d8764;strokeColor=#000000;" vertex="1" parent="3BbyAPpDiJHyQR64XtiH-28">
          <mxGeometry x="5" y="8" width="20" height="20" as="geometry" />
        </mxCell>
        <mxCell id="3BbyAPpDiJHyQR64XtiH-31" value="" style="ellipse;whiteSpace=wrap;html=1;aspect=fixed;fillColor=#6d8764;strokeColor=#000000;" vertex="1" parent="3BbyAPpDiJHyQR64XtiH-28">
          <mxGeometry x="5" y="33" width="20" height="20" as="geometry" />
        </mxCell>
        <mxCell id="3BbyAPpDiJHyQR64XtiH-32" value="" style="ellipse;whiteSpace=wrap;html=1;aspect=fixed;fillColor=#6d8764;strokeColor=#000000;" vertex="1" parent="3BbyAPpDiJHyQR64XtiH-28">
          <mxGeometry x="5" y="58" width="20" height="20" as="geometry" />
        </mxCell>
      </root>
    </mxGraphModel>
  </diagram>
</mxfile>
